<svg width="628" height="250" viewBox="0 0 628 250" fill="none" xmlns="http://www.w3.org/2000/svg">
<rect width="628" height="250" rx="125" fill="#EA8989"/>
<path d="M307 0H503C572.036 0 628 55.9644 628 125V125C628 194.036 572.036 250 503 250H307V0Z" fill="#F3F3F3"/>
<path d="M244 228.985L197.156 228.985L197.156 200.897L202.188 200.897L202.188 223.313L218.016 223.313L218.016 203.002L223.048 203.002L223.048 223.313L244 223.313L244 228.985ZM197.156 185.51L244 185.51L244 191.182L197.156 191.182L197.156 185.51ZM244 174.136L197.156 174.136L197.156 158.308C197.156 154.648 197.782 151.644 199.032 149.296C200.267 146.948 201.967 145.21 204.133 144.081C206.298 142.953 208.761 142.389 211.521 142.389C214.281 142.389 216.728 142.953 218.863 144.081C220.998 145.21 222.675 146.94 223.895 149.273C225.099 151.606 225.702 154.587 225.702 158.217L225.702 171.025L220.578 171.025L220.578 158.4C220.578 155.899 220.212 153.886 219.48 152.361C218.748 150.821 217.711 149.708 216.37 149.022C215.012 148.32 213.396 147.97 211.521 147.97C209.645 147.97 208.006 148.32 206.603 149.022C205.2 149.723 204.117 150.844 203.355 152.384C202.577 153.924 202.188 155.96 202.188 158.491L202.188 168.464L244 168.464L244 174.136ZM222.957 152.087L244 140.559L244 147.146L222.957 158.491L222.957 152.087ZM208.867 107.319C206.549 107.593 204.75 108.706 203.469 110.658C202.188 112.61 201.548 115.004 201.548 117.84C201.548 119.914 201.883 121.729 202.554 123.284C203.225 124.824 204.148 126.029 205.322 126.898C206.496 127.752 207.83 128.179 209.325 128.179C210.575 128.179 211.65 127.881 212.55 127.287C213.434 126.677 214.174 125.899 214.768 124.954C215.348 124.008 215.828 123.017 216.209 121.98C216.575 120.943 216.873 119.99 217.101 119.121L218.382 114.364C218.703 113.144 219.145 111.787 219.709 110.292C220.273 108.783 221.043 107.342 222.019 105.969C222.98 104.582 224.215 103.438 225.725 102.538C227.234 101.639 229.087 101.189 231.283 101.189C233.814 101.189 236.101 101.852 238.145 103.179C240.188 104.49 241.812 106.411 243.016 108.943C244.221 111.459 244.823 114.516 244.823 118.115C244.823 121.469 244.282 124.374 243.199 126.829C242.117 129.269 240.607 131.19 238.671 132.593C236.734 133.981 234.485 134.766 231.923 134.949L231.923 129.094C233.692 128.941 235.156 128.347 236.315 127.31C237.458 126.257 238.312 124.931 238.876 123.33C239.425 121.713 239.7 119.975 239.7 118.115C239.7 115.949 239.349 114.005 238.648 112.282C237.931 110.559 236.94 109.194 235.674 108.188C234.393 107.181 232.899 106.678 231.191 106.678C229.636 106.678 228.37 107.113 227.394 107.982C226.418 108.851 225.625 109.995 225.016 111.413C224.406 112.831 223.872 114.364 223.414 116.01L221.768 121.774C220.715 125.434 219.213 128.331 217.262 130.466C215.31 132.601 212.756 133.668 209.599 133.668C206.976 133.668 204.689 132.959 202.737 131.541C200.77 130.108 199.245 128.186 198.163 125.777C197.065 123.353 196.516 120.646 196.516 117.657C196.516 114.638 197.057 111.954 198.14 109.606C199.207 107.258 200.671 105.397 202.531 104.025C204.392 102.637 206.504 101.905 208.867 101.829L208.867 107.319ZM202.188 94.4241L197.156 94.4241L197.156 59.2914L202.188 59.2914L202.188 74.0215L244 74.0215L244 79.694L202.188 79.694L202.188 94.4241ZM296 227.064L296 233.011L249.156 215.81L249.156 209.955L296 192.755L296 198.702L256.567 212.7L256.567 213.066L296 227.064ZM277.702 224.868L277.702 200.897L282.734 200.897L282.734 224.868L277.702 224.868ZM249.156 179.786L296 179.786L296 185.458L249.156 185.458L249.156 179.786ZM296 153.957L296 168.412L249.156 168.412L249.156 153.316C249.156 148.772 250.094 144.884 251.97 141.651C253.83 138.418 256.506 135.94 259.998 134.217C263.475 132.494 267.638 131.633 272.487 131.633C277.366 131.633 281.567 132.502 285.09 134.24C288.597 135.978 291.296 138.51 293.187 141.834C295.062 145.158 296 149.199 296 153.957ZM290.968 162.74L290.968 154.322C290.968 150.449 290.221 147.24 288.726 144.693C287.232 142.146 285.105 140.248 282.345 138.998C279.585 137.747 276.299 137.122 272.487 137.122C268.705 137.122 265.449 137.74 262.72 138.975C259.975 140.21 257.871 142.055 256.407 144.51C254.928 146.965 254.188 150.022 254.188 153.682L254.188 162.74L290.968 162.74ZM296 104.002L249.156 104.002L249.156 98.3297L272.395 98.3297L272.395 97.7807L249.156 76.7377L249.156 69.3269L270.291 88.9975L296 69.3269L296 76.1887L274.225 92.4742L280.812 98.3297L296 98.3297L296 104.002ZM249.156 56.3122L296 56.3122L296 61.9847L249.156 61.9847L249.156 56.3122ZM254.188 47.5004L249.156 47.5004L249.156 12.3677L254.188 12.3677L254.188 27.0978L296 27.0978L296 32.7703L254.188 32.7703L254.188 47.5004Z" fill="#731F1F"/>
<path d="M318.148 220.834L314.401 207.132H316.087L318.951 218.292H319.085L322.002 207.132H323.875L326.792 218.292H326.926L329.789 207.132H331.475L327.729 220.834H326.016L322.992 209.915H322.885L319.861 220.834H318.148ZM331.847 220.834V207.132H340.116V208.604H333.506V213.234H339.688V214.706H333.506V219.362H340.223V220.834H331.847ZM341.411 220.834V207.132H346.201C347.156 207.132 347.943 207.297 348.563 207.627C349.183 207.953 349.645 208.392 349.948 208.945C350.251 209.494 350.403 210.103 350.403 210.772C350.403 211.36 350.298 211.847 350.089 212.23C349.883 212.614 349.611 212.917 349.272 213.14C348.938 213.363 348.574 213.528 348.182 213.635V213.769C348.601 213.796 349.023 213.943 349.446 214.211C349.87 214.478 350.225 214.862 350.51 215.361C350.795 215.861 350.938 216.472 350.938 217.194C350.938 217.881 350.782 218.499 350.47 219.048C350.158 219.596 349.665 220.031 348.991 220.352C348.318 220.673 347.441 220.834 346.362 220.834H341.411ZM343.07 219.362H346.362C347.446 219.362 348.215 219.152 348.67 218.733C349.13 218.309 349.359 217.797 349.359 217.194C349.359 216.731 349.241 216.302 349.005 215.91C348.768 215.513 348.432 215.196 347.994 214.96C347.557 214.719 347.04 214.599 346.442 214.599H343.07V219.362ZM343.07 213.153H346.148C346.647 213.153 347.098 213.055 347.499 212.859C347.905 212.663 348.226 212.386 348.463 212.029C348.704 211.673 348.824 211.253 348.824 210.772C348.824 210.17 348.614 209.659 348.195 209.24C347.776 208.816 347.111 208.604 346.201 208.604H343.07V213.153ZM323.152 230.558C323.072 229.88 322.747 229.353 322.176 228.979C321.605 228.604 320.904 228.417 320.075 228.417C319.468 228.417 318.937 228.515 318.483 228.711C318.032 228.907 317.68 229.177 317.425 229.521C317.176 229.864 317.051 230.254 317.051 230.691C317.051 231.057 317.138 231.372 317.312 231.635C317.49 231.893 317.718 232.11 317.994 232.284C318.271 232.453 318.561 232.594 318.864 232.705C319.167 232.812 319.446 232.899 319.7 232.966L321.092 233.341C321.449 233.434 321.846 233.564 322.283 233.729C322.724 233.894 323.146 234.119 323.547 234.405C323.953 234.686 324.288 235.047 324.551 235.488C324.814 235.93 324.945 236.472 324.945 237.114C324.945 237.855 324.751 238.524 324.363 239.121C323.98 239.719 323.418 240.194 322.677 240.546C321.941 240.899 321.047 241.075 319.995 241.075C319.013 241.075 318.164 240.916 317.446 240.6C316.732 240.283 316.17 239.842 315.76 239.275C315.354 238.709 315.124 238.051 315.07 237.301H316.783C316.828 237.819 317.002 238.247 317.305 238.586C317.613 238.921 318.001 239.17 318.469 239.335C318.942 239.496 319.45 239.576 319.995 239.576C320.628 239.576 321.197 239.474 321.701 239.268C322.205 239.059 322.604 238.769 322.898 238.399C323.193 238.024 323.34 237.587 323.34 237.087C323.34 236.632 323.213 236.262 322.958 235.977C322.704 235.691 322.37 235.459 321.955 235.281C321.54 235.103 321.092 234.946 320.61 234.813L318.924 234.331C317.854 234.023 317.006 233.584 316.382 233.013C315.757 232.442 315.445 231.695 315.445 230.772C315.445 230.005 315.653 229.336 316.067 228.765C316.487 228.189 317.049 227.743 317.753 227.427C318.462 227.105 319.254 226.945 320.128 226.945C321.011 226.945 321.796 227.103 322.483 227.42C323.17 227.732 323.714 228.16 324.116 228.704C324.522 229.249 324.736 229.866 324.758 230.558H323.152ZM324.8 227.132H326.7L330.5 233.528H330.661L334.461 227.132H336.361L331.41 235.187V240.834H329.751V235.187L324.8 227.132ZM347.677 227.132V240.834H346.071L338.605 230.076H338.471V240.834H336.812V227.132H338.417L345.91 237.917H346.044V227.132H347.677ZM348.552 228.604V227.132H358.828V228.604H354.52V240.834H352.86V228.604H348.552ZM359.693 240.834V227.132H361.352V233.234H368.658V227.132H370.318V240.834H368.658V234.706H361.352V240.834H359.693ZM371.944 240.834V227.132H380.213V228.604H373.603V233.234H379.785V234.706H373.603V239.362H380.32V240.834H371.944ZM389.001 230.558C388.921 229.88 388.595 229.353 388.024 228.979C387.453 228.604 386.753 228.417 385.924 228.417C385.317 228.417 384.786 228.515 384.331 228.711C383.881 228.907 383.528 229.177 383.274 229.521C383.024 229.864 382.9 230.254 382.9 230.691C382.9 231.057 382.987 231.372 383.16 231.635C383.339 231.893 383.566 232.11 383.843 232.284C384.119 232.453 384.409 232.594 384.713 232.705C385.016 232.812 385.295 232.899 385.549 232.966L386.941 233.341C387.297 233.434 387.694 233.564 388.131 233.729C388.573 233.894 388.994 234.119 389.396 234.405C389.802 234.686 390.136 235.047 390.399 235.488C390.663 235.93 390.794 236.472 390.794 237.114C390.794 237.855 390.6 238.524 390.212 239.121C389.828 239.719 389.267 240.194 388.526 240.546C387.79 240.899 386.896 241.075 385.843 241.075C384.862 241.075 384.012 240.916 383.294 240.6C382.581 240.283 382.019 239.842 381.608 239.275C381.202 238.709 380.973 238.051 380.919 237.301H382.632C382.677 237.819 382.85 238.247 383.154 238.586C383.462 238.921 383.85 239.17 384.318 239.335C384.791 239.496 385.299 239.576 385.843 239.576C386.477 239.576 387.045 239.474 387.549 239.268C388.053 239.059 388.453 238.769 388.747 238.399C389.041 238.024 389.188 237.587 389.188 237.087C389.188 236.632 389.061 236.262 388.807 235.977C388.553 235.691 388.218 235.459 387.804 235.281C387.389 235.103 386.941 234.946 386.459 234.813L384.773 234.331C383.702 234.023 382.855 233.584 382.231 233.013C381.606 232.442 381.294 231.695 381.294 230.772C381.294 230.005 381.501 229.336 381.916 228.765C382.335 228.189 382.897 227.743 383.602 227.427C384.311 227.105 385.103 226.945 385.977 226.945C386.86 226.945 387.645 227.103 388.332 227.42C389.019 227.732 389.563 228.16 389.965 228.704C390.37 229.249 390.585 229.866 390.607 230.558H389.001ZM393.486 227.132V240.834H391.827V227.132H393.486ZM394.662 240.834V239.63L402.048 228.604H394.582V227.132H404.028V228.336L396.642 239.362H404.109V240.834H394.662ZM405.196 240.834V227.132H413.466V228.604H406.856V233.234H413.037V234.706H406.856V239.362H413.573V240.834H405.196ZM414.761 240.834V227.132H419.39C420.461 227.132 421.339 227.315 422.026 227.681C422.713 228.042 423.222 228.539 423.552 229.173C423.882 229.806 424.047 230.526 424.047 231.334C424.047 232.141 423.882 232.857 423.552 233.481C423.222 234.106 422.715 234.596 422.033 234.953C421.351 235.306 420.479 235.482 419.417 235.482H415.67V233.983H419.364C420.095 233.983 420.684 233.876 421.13 233.662C421.58 233.448 421.906 233.145 422.107 232.752C422.312 232.355 422.414 231.882 422.414 231.334C422.414 230.785 422.312 230.306 422.107 229.895C421.901 229.485 421.574 229.168 421.123 228.945C420.673 228.718 420.077 228.604 419.337 228.604H416.42V240.834H414.761ZM421.21 234.679L424.582 240.834H422.655L419.337 234.679H421.21Z" fill="#ADB4BA"/>
</svg>
